# Blender v2.62 (sub 0) OBJ File: ''
# www.blender.org
v 0.697400 1.090748 -16.019146
v 0.359900 -0.850554 -5.781646
v 0.247200 -0.881854 -5.750146
v 0.586000 1.066948 -16.027346
v 0.799100 1.141148 -16.006247
v 0.462800 -0.793254 -5.805246
v 0.884700 1.214848 -15.989447
v 0.549400 -0.713654 -5.819546
v 0.948900 1.307248 -15.969847
v 0.614400 -0.616754 -5.823546
v 0.987500 1.412648 -15.948545
v 0.653500 -0.508554 -5.817046
v 0.998300 1.524248 -15.927046
v 0.664400 -0.395954 -5.800446
v 0.980400 1.635248 -15.906647
v 0.646300 -0.285954 -5.774846
v 0.935000 1.738448 -15.888546
v 0.600500 -0.185554 -5.741746
v 0.865000 1.827548 -15.873947
v 0.529700 -0.101054 -5.703246
v 0.774800 1.896848 -15.863747
v 0.438400 -0.037654 -5.661746
v 0.670000 1.942048 -15.858646
v 0.332500 0.000546 -5.620046
v 0.557300 1.960248 -15.858946
v 0.218400 0.011246 -5.580546
v 0.443600 1.950348 -15.864546
v 0.103400 -0.006354 -5.545746
v 0.336200 1.912948 -15.875147
v -0.005300 -0.050954 -5.517946
v 0.241800 1.850448 -15.890146
v -0.100800 -0.119954 -5.498846
v 0.166300 1.766748 -15.908546
v -0.177200 -0.208954 -5.489646
v 0.114500 1.667048 -15.929146
v -0.229600 -0.312354 -5.490846
v 0.089600 1.557648 -15.950645
v -0.254800 -0.423554 -5.502546
v 0.093300 1.445448 -15.971846
v -0.251200 -0.535754 -5.523846
v 0.125100 1.337548 -15.991245
v -0.219000 -0.641754 -5.553446
v 0.183300 1.240548 -16.007746
v -0.160200 -0.734954 -5.589546
v 0.264000 1.160748 -16.020145
v -0.078600 -0.809554 -5.629746
v 0.362300 1.103048 -16.027845
v 0.020800 -0.860754 -5.671746
v 0.471900 1.071148 -16.030346
v 0.131700 -0.885354 -5.712646
v -0.296800 -4.627457 14.136553
v -0.195100 -4.577157 14.149452
v -0.109500 -4.503457 14.166252
v -0.045400 -4.410956 14.185852
v -0.006700 -4.305656 14.207153
v 0.004000 -4.193956 14.228653
v -0.013900 -4.083056 14.249052
v -0.059200 -3.979757 14.267153
v -0.129200 -3.890657 14.281754
v -0.219400 -3.821357 14.291952
v -0.324200 -3.776157 14.297052
v -0.437000 -3.757957 14.296753
v -0.550600 -3.767857 14.291153
v -0.658000 -3.805257 14.280552
v -0.752400 -3.867757 14.265553
v -0.827900 -3.951557 14.247152
v -0.879700 -4.051257 14.226553
v -0.904600 -4.160556 14.205053
v -0.901000 -4.272757 14.183853
v -0.869100 -4.380756 14.164454
v -0.811000 -4.477656 14.147953
v -0.730300 -4.557456 14.135553
v -0.632000 -4.615157 14.127853
v -0.522400 -4.647157 14.125353
v -0.408200 -4.651357 14.128353
v 0.003000 -2.286255 1.655753
v 0.114200 -2.263655 1.670753
v 0.215700 -2.214355 1.689053
v 0.301200 -2.141355 1.709653
v 0.365300 -2.049255 1.731153
v 0.403900 -1.943855 1.752253
v 0.414700 -1.831855 1.771653
v 0.397000 -1.720155 1.788053
v 0.351800 -1.615755 1.800454
v 0.282000 -1.525355 1.808154
v 0.192100 -1.454555 1.810454
v 0.087600 -1.407855 1.807454
v -0.024900 -1.388155 1.799253
v -0.138300 -1.396655 1.786354
v -0.245500 -1.432855 1.769554
v -0.339800 -1.494555 1.749954
v -0.415200 -1.577755 1.728654
v -0.467000 -1.677255 1.707253
v -0.491900 -1.786855 1.686853
v -0.488400 -1.899655 1.668753
v -0.456700 -2.008555 1.654253
v -0.398700 -2.106655 1.644153
v -0.318200 -2.187855 1.639153
v -0.220200 -2.247055 1.639453
v -0.110900 -2.280555 1.645053
vt 0.512900 0.880000
vt 0.511900 0.911900
vt 0.508400 0.912000
vt 0.509300 0.880000
vt 0.426900 0.880200
vt 0.430300 0.911900
vt 0.426900 0.912000
vt 0.516400 0.880000
vt 0.430400 0.880200
vt 0.433800 0.911800
vt 0.433900 0.880200
vt 0.437200 0.911700
vt 0.437400 0.880200
vt 0.440600 0.911700
vt 0.441000 0.880200
vt 0.444000 0.911700
vt 0.444600 0.880200
vt 0.447500 0.911700
vt 0.448100 0.880100
vt 0.450900 0.911700
vt 0.451700 0.880100
vt 0.454200 0.911800
vt 0.455300 0.880100
vt 0.457600 0.911900
vt 0.458900 0.880100
vt 0.461000 0.912000
vt 0.462500 0.880100
vt 0.464400 0.912100
vt 0.466100 0.880100
vt 0.467800 0.912200
vt 0.469700 0.880100
vt 0.471100 0.912300
vt 0.473400 0.880100
vt 0.474500 0.912400
vt 0.477000 0.880100
vt 0.477800 0.912500
vt 0.480600 0.880100
vt 0.481200 0.912500
vt 0.484200 0.880100
vt 0.484600 0.912600
vt 0.487800 0.880000
vt 0.487900 0.912600
vt 0.491400 0.880000
vt 0.491300 0.912500
vt 0.495000 0.880000
vt 0.494700 0.912400
vt 0.498600 0.880000
vt 0.498100 0.912400
vt 0.502200 0.880000
vt 0.501500 0.912200
vt 0.505800 0.880000
vt 0.505000 0.912100
vt 0.921600 0.673500
vt 0.921000 0.670700
vt 0.921200 0.667700
vt 0.922100 0.665000
vt 0.923700 0.662500
vt 0.925800 0.660500
vt 0.928400 0.659100
vt 0.931200 0.658400
vt 0.934100 0.658400
vt 0.937000 0.659100
vt 0.939500 0.660500
vt 0.941600 0.662500
vt 0.943200 0.665000
vt 0.944100 0.667800
vt 0.944300 0.670700
vt 0.943700 0.673600
vt 0.942500 0.676200
vt 0.940600 0.678400
vt 0.938300 0.680100
vt 0.935500 0.681200
vt 0.932600 0.681600
vt 0.929800 0.681200
vt 0.927000 0.680100
vt 0.924700 0.678400
vt 0.922800 0.676200
vt 0.578000 0.449100
vt 0.580700 0.448100
vt 0.583500 0.447700
vt 0.586300 0.448100
vt 0.588900 0.449100
vt 0.591200 0.450800
vt 0.593000 0.453000
vt 0.594200 0.455500
vt 0.594700 0.458300
vt 0.594600 0.461100
vt 0.593700 0.463800
vt 0.592200 0.466200
vt 0.590100 0.468200
vt 0.587600 0.469500
vt 0.584900 0.470200
vt 0.582100 0.470200
vt 0.579300 0.469500
vt 0.576800 0.468200
vt 0.574800 0.466200
vt 0.573300 0.463800
vt 0.572400 0.461100
vt 0.572200 0.458300
vt 0.572700 0.455500
vt 0.573900 0.453000
vt 0.575700 0.450800
vt 0.570000 0.960500
vt 0.567200 0.960500
vt 0.567000 0.929000
vt 0.569800 0.929000
vt 0.572900 0.960500
vt 0.498500 0.929000
vt 0.501400 0.929000
vt 0.502200 0.960600
vt 0.505000 0.960600
vt 0.504200 0.929000
vt 0.507800 0.960600
vt 0.507100 0.929000
vt 0.510700 0.960600
vt 0.509900 0.929000
vt 0.513500 0.960600
vt 0.512800 0.929000
vt 0.516300 0.960600
vt 0.515600 0.929000
vt 0.519200 0.960600
vt 0.518500 0.929000
vt 0.522000 0.960600
vt 0.521300 0.929000
vt 0.524800 0.960600
vt 0.524100 0.929000
vt 0.527700 0.960600
vt 0.527000 0.928900
vt 0.530500 0.960600
vt 0.529800 0.928900
vt 0.533300 0.960600
vt 0.532700 0.928900
vt 0.536200 0.960600
vt 0.535500 0.928900
vt 0.539000 0.960500
vt 0.538400 0.928900
vt 0.541800 0.960500
vt 0.541200 0.928900
vt 0.544600 0.960500
vt 0.544100 0.928800
vt 0.547500 0.960500
vt 0.547000 0.928900
vt 0.550300 0.960500
vt 0.549800 0.928900
vt 0.553100 0.960500
vt 0.552700 0.928900
vt 0.555900 0.960500
vt 0.555500 0.928900
vt 0.558700 0.960500
vt 0.558400 0.928900
vt 0.561600 0.960500
vt 0.561300 0.928900
vt 0.564400 0.960500
vt 0.564100 0.928900
vt 0.270500 0.578500
vt 0.270700 0.575000
vt 0.506500 0.574000
vt 0.507800 0.577500
vt 0.270100 0.491400
vt 0.270300 0.487800
vt 0.507500 0.489700
vt 0.508700 0.493300
vt 0.269900 0.495000
vt 0.509700 0.496800
vt 0.269900 0.498600
vt 0.510400 0.500400
vt 0.269800 0.502200
vt 0.510800 0.503900
vt 0.269900 0.505800
vt 0.511000 0.507400
vt 0.270000 0.509500
vt 0.510800 0.510900
vt 0.270200 0.513100
vt 0.510300 0.514400
vt 0.270400 0.516700
vt 0.509600 0.517900
vt 0.270700 0.520400
vt 0.508600 0.521400
vt 0.270900 0.524000
vt 0.507400 0.524900
vt 0.271200 0.527700
vt 0.506200 0.528400
vt 0.271400 0.531400
vt 0.504900 0.531800
vt 0.271600 0.535000
vt 0.503700 0.535300
vt 0.271800 0.538700
vt 0.502600 0.538800
vt 0.271900 0.542300
vt 0.501800 0.542300
vt 0.272000 0.546000
vt 0.501200 0.545800
vt 0.272000 0.549600
vt 0.500900 0.549300
vt 0.271900 0.553300
vt 0.500900 0.552800
vt 0.271800 0.556900
vt 0.501300 0.556300
vt 0.271600 0.560500
vt 0.501900 0.559800
vt 0.271400 0.564100
vt 0.502900 0.563300
vt 0.271200 0.567800
vt 0.504000 0.566900
vt 0.271000 0.571400
vt 0.505200 0.570400
vn 0.270425 -0.552690 -0.788263
vn 0.338633 -0.926420 -0.164495
vn 0.094119 -0.978668 -0.182470
vn 0.091037 -0.590716 -0.801691
vn 0.434065 -0.471358 -0.767693
vn 0.562120 -0.815760 -0.136143
vn 0.571642 -0.353191 -0.740562
vn 0.749687 -0.654256 -0.099338
vn 0.674337 -0.203711 -0.709738
vn 0.890561 -0.451338 -0.056215
vn 0.737327 -0.034913 -0.674612
vn 0.975463 -0.219886 -0.009522
vn 0.755058 0.144414 -0.639515
vn 0.998962 0.025117 0.037690
vn 0.725669 0.323649 -0.607135
vn 0.959716 0.268471 0.082553
vn 0.652730 0.489914 -0.577837
vn 0.860164 0.495102 0.122227
vn 0.540117 0.633045 -0.554521
vn 0.706442 0.690725 0.154271
vn 0.395215 0.744865 -0.537522
vn 0.508560 0.842708 0.176550
vn 0.226325 0.817286 -0.529893
vn 0.278726 0.941832 0.187780
vn 0.044893 0.845943 -0.531327
vn 0.031129 0.981811 0.187201
vn -0.138005 0.830592 -0.539476
vn -0.218024 0.960143 0.174871
vn -0.311167 0.770959 -0.555650
vn -0.453719 0.878140 0.151555
vn -0.462600 0.669912 -0.580676
vn -0.661245 0.740715 0.118656
vn -0.583605 0.534989 -0.610859
vn -0.826930 0.556810 0.078310
vn -0.667409 0.374615 -0.643544
vn -0.940519 0.338054 0.033082
vn -0.709067 0.198218 -0.676656
vn -0.995025 0.098331 -0.014161
vn -0.701590 0.018067 -0.712302
vn -0.987121 -0.147832 -0.060579
vn -0.651051 -0.155736 -0.742851
vn -0.917142 -0.384899 -0.103214
vn -0.556658 -0.311441 -0.770135
vn -0.789697 -0.597430 -0.139317
vn -0.427412 -0.440962 -0.789209
vn -0.612659 -0.772546 -0.166692
vn -0.268807 -0.532945 -0.802271
vn -0.396558 -0.899441 -0.183630
vn -0.092257 -0.582842 -0.807306
vn -0.155828 -0.969512 -0.188971
vn 0.226386 -0.805780 0.547227
vn 0.389874 -0.724906 0.567858
vn 0.527970 -0.606067 0.594867
vn 0.632130 -0.457778 0.625141
vn 0.693228 -0.288003 0.660634
vn 0.710379 -0.107883 0.695456
vn 0.681906 0.070284 0.728019
vn 0.608997 0.236244 0.757134
vn 0.496139 0.379742 0.780786
vn 0.350688 0.490677 0.797632
vn 0.182226 0.563952 0.805414
vn 0.000763 0.594043 0.804407
vn -0.182043 0.577349 0.795923
vn -0.354503 0.516343 0.779534
vn -0.506851 0.416578 0.754662
vn -0.628620 0.282022 0.724754
vn -0.711539 0.121494 0.692038
vn -0.750633 -0.054689 0.658437
vn -0.745781 -0.235115 0.623280
vn -0.693777 -0.408673 0.592975
vn -0.601093 -0.564714 0.565447
vn -0.470717 -0.692648 0.546464
vn -0.313059 -0.785760 0.533403
vn -0.136662 -0.837855 0.528459
vn 0.047182 -0.843928 0.534349
vn 0.094302 -0.978668 -0.182470
vn 0.338908 -0.926298 -0.164464
vn 0.561907 -0.815882 -0.136174
vn 0.749840 -0.654103 -0.099307
vn 0.890713 -0.451033 -0.056154
vn 0.975463 -0.219825 -0.009522
vn 0.998962 0.024751 0.037629
vn 0.959777 0.268288 0.082522
vn 0.860134 0.495163 0.122257
vn 0.706626 0.690542 0.154241
vn 0.508682 0.842647 0.176550
vn 0.278512 0.941862 0.187780
vn 0.031159 0.981811 0.187201
vn -0.218085 0.960112 0.174871
vn -0.453932 0.878048 0.151524
vn -0.661153 0.740776 0.118656
vn -0.826655 0.557176 0.078402
vn -0.940428 0.338328 0.033143
vn -0.995056 0.098209 -0.014161
vn -0.987152 -0.147832 -0.060579
vn -0.917051 -0.385113 -0.103244
vn -0.789270 -0.597949 -0.139409
vn -0.612262 -0.772851 -0.166723
vn -0.396893 -0.899289 -0.183599
vn -0.156499 -0.969420 -0.188971
s 1
f 1/1/1 2/2/2 3/3/3
f 4/4/4 1/1/1 3/3/3
f 5/5/5 6/6/6 2/7/2
f 2/2/2 1/1/1 5/8/5
f 7/9/7 8/10/8 6/6/6
f 6/6/6 5/5/5 7/9/7
f 9/11/9 10/12/10 8/10/8
f 8/10/8 7/9/7 9/11/9
f 11/13/11 12/14/12 10/12/10
f 10/12/10 9/11/9 11/13/11
f 13/15/13 14/16/14 12/14/12
f 12/14/12 11/13/11 13/15/13
f 15/17/15 16/18/16 14/16/14
f 14/16/14 13/15/13 15/17/15
f 17/19/17 18/20/18 16/18/16
f 16/18/16 15/17/15 17/19/17
f 19/21/19 20/22/20 18/20/18
f 18/20/18 17/19/17 19/21/19
f 21/23/21 22/24/22 20/22/20
f 20/22/20 19/21/19 21/23/21
f 23/25/23 24/26/24 22/24/22
f 22/24/22 21/23/21 23/25/23
f 25/27/25 26/28/26 24/26/24
f 24/26/24 23/25/23 25/27/25
f 27/29/27 28/30/28 26/28/26
f 26/28/26 25/27/25 27/29/27
f 29/31/29 30/32/30 28/30/28
f 28/30/28 27/29/27 29/31/29
f 31/33/31 32/34/32 30/32/30
f 30/32/30 29/31/29 31/33/31
f 33/35/33 34/36/34 32/34/32
f 32/34/32 31/33/31 33/35/33
f 35/37/35 36/38/36 34/36/34
f 34/36/34 33/35/33 35/37/35
f 37/39/37 38/40/38 36/38/36
f 36/38/36 35/37/35 37/39/37
f 39/41/39 40/42/40 38/40/38
f 38/40/38 37/39/37 39/41/39
f 41/43/41 42/44/42 40/42/40
f 40/42/40 39/41/39 41/43/41
f 43/45/43 44/46/44 42/44/42
f 42/44/42 41/43/41 43/45/43
f 45/47/45 46/48/46 44/46/44
f 44/46/44 43/45/43 45/47/45
f 47/49/47 48/50/48 46/48/46
f 46/48/46 45/47/45 47/49/47
f 49/51/49 50/52/50 48/50/48
f 48/50/48 47/49/47 49/51/49
f 4/4/4 3/3/3 50/52/50
f 50/52/50 49/51/49 4/4/4
f 47/53/47 45/54/45 43/55/43
f 43/55/43 41/56/41 39/57/39
f 47/53/47 43/55/43 39/57/39
f 39/57/39 37/58/37 35/59/35
f 35/59/35 33/60/33 31/61/31
f 39/57/39 35/59/35 31/61/31
f 47/53/47 39/57/39 31/61/31
f 31/61/31 29/62/29 27/63/27
f 27/63/27 25/64/25 23/65/23
f 31/61/31 27/63/27 23/65/23
f 23/65/23 21/66/21 19/67/19
f 19/67/19 17/68/17 15/69/15
f 23/65/23 19/67/19 15/69/15
f 31/61/31 23/65/23 15/69/15
f 47/53/47 31/61/31 15/69/15
f 15/69/15 13/70/13 11/71/11
f 11/71/11 9/72/9 7/73/7
f 15/69/15 11/71/11 7/73/7
f 47/53/47 15/69/15 7/73/7
f 5/74/5 1/75/1 7/73/7
f 7/73/7 1/75/1 47/53/47
f 47/53/47 1/75/1 4/76/4
f 49/77/49 47/53/47 4/76/4
f 51/78/51 52/79/52 53/80/53
f 53/80/53 54/81/54 55/82/55
f 51/78/51 53/80/53 55/82/55
f 55/82/55 56/83/56 57/84/57
f 57/84/57 58/85/58 59/86/59
f 55/82/55 57/84/57 59/86/59
f 51/78/51 55/82/55 59/86/59
f 59/86/59 60/87/60 61/88/61
f 61/88/61 62/89/62 63/90/63
f 59/86/59 61/88/61 63/90/63
f 63/90/63 64/91/64 65/92/65
f 65/92/65 66/93/66 67/94/67
f 63/90/63 65/92/65 67/94/67
f 59/86/59 63/90/63 67/94/67
f 51/78/51 59/86/59 67/94/67
f 67/94/67 68/95/68 69/96/69
f 69/96/69 70/97/70 71/98/71
f 67/94/67 69/96/69 71/98/71
f 51/78/51 67/94/67 71/98/71
f 71/98/71 72/99/72 73/100/73
f 51/78/51 71/98/71 73/100/73
f 51/78/51 73/100/73 74/101/74
f 75/102/75 51/78/51 74/101/74
f 51/103/51 75/104/75 76/105/76
f 76/105/76 77/106/77 51/103/51
f 52/107/52 51/103/51 77/106/77
f 77/108/77 78/109/78 52/110/52
f 53/111/53 52/110/52 78/109/78
f 78/109/78 79/112/79 53/111/53
f 54/113/54 53/111/53 79/112/79
f 79/112/79 80/114/80 54/113/54
f 55/115/55 54/113/54 80/114/80
f 80/114/80 81/116/81 55/115/55
f 56/117/56 55/115/55 81/116/81
f 81/116/81 82/118/82 56/117/56
f 57/119/57 56/117/56 82/118/82
f 82/118/82 83/120/83 57/119/57
f 58/121/58 57/119/57 83/120/83
f 83/120/83 84/122/84 58/121/58
f 59/123/59 58/121/58 84/122/84
f 84/122/84 85/124/85 59/123/59
f 60/125/60 59/123/59 85/124/85
f 85/124/85 86/126/86 60/125/60
f 61/127/61 60/125/60 86/126/86
f 86/126/86 87/128/87 61/127/61
f 62/129/62 61/127/61 87/128/87
f 87/128/87 88/130/88 62/129/62
f 63/131/63 62/129/62 88/130/88
f 88/130/88 89/132/89 63/131/63
f 64/133/64 63/131/63 89/132/89
f 89/132/89 90/134/90 64/133/64
f 65/135/65 64/133/64 90/134/90
f 90/134/90 91/136/91 65/135/65
f 66/137/66 65/135/65 91/136/91
f 91/136/91 92/138/92 66/137/66
f 67/139/67 66/137/66 92/138/92
f 92/138/92 93/140/93 67/139/67
f 68/141/68 67/139/67 93/140/93
f 93/140/93 94/142/94 68/141/68
f 69/143/69 68/141/68 94/142/94
f 94/142/94 95/144/95 69/143/69
f 70/145/70 69/143/69 95/144/95
f 95/144/95 96/146/96 70/145/70
f 71/147/71 70/145/70 96/146/96
f 96/146/96 97/148/97 71/147/71
f 72/149/72 71/147/71 97/148/97
f 97/148/97 98/150/98 72/149/72
f 73/151/73 72/149/72 98/150/98
f 98/150/98 99/152/99 73/151/73
f 74/153/74 73/151/73 99/152/99
f 99/152/99 100/154/100 74/153/74
f 75/104/75 74/153/74 100/154/100
f 100/154/100 76/105/76 75/104/75
f 77/155/77 76/156/76 3/157/3
f 3/157/3 2/158/2 77/155/77
f 78/159/78 77/160/77 2/161/2
f 2/161/2 6/162/6 78/159/78
f 79/163/79 78/159/78 6/162/6
f 6/162/6 8/164/8 79/163/79
f 80/165/80 79/163/79 8/164/8
f 8/164/8 10/166/10 80/165/80
f 81/167/81 80/165/80 10/166/10
f 10/166/10 12/168/12 81/167/81
f 82/169/82 81/167/81 12/168/12
f 12/168/12 14/170/14 82/169/82
f 83/171/83 82/169/82 14/170/14
f 14/170/14 16/172/16 83/171/83
f 84/173/84 83/171/83 16/172/16
f 16/172/16 18/174/18 84/173/84
f 85/175/85 84/173/84 18/174/18
f 18/174/18 20/176/20 85/175/85
f 86/177/86 85/175/85 20/176/20
f 20/176/20 22/178/22 86/177/86
f 87/179/87 86/177/86 22/178/22
f 22/178/22 24/180/24 87/179/87
f 88/181/88 87/179/87 24/180/24
f 24/180/24 26/182/26 88/181/88
f 89/183/89 88/181/88 26/182/26
f 26/182/26 28/184/28 89/183/89
f 90/185/90 89/183/89 28/184/28
f 28/184/28 30/186/30 90/185/90
f 91/187/91 90/185/90 30/186/30
f 30/186/30 32/188/32 91/187/91
f 92/189/92 91/187/91 32/188/32
f 32/188/32 34/190/34 92/189/92
f 93/191/93 92/189/92 34/190/34
f 34/190/34 36/192/36 93/191/93
f 94/193/94 93/191/93 36/192/36
f 36/192/36 38/194/38 94/193/94
f 95/195/95 94/193/94 38/194/38
f 38/194/38 40/196/40 95/195/95
f 96/197/96 95/195/95 40/196/40
f 40/196/40 42/198/42 96/197/96
f 97/199/97 96/197/96 42/198/42
f 42/198/42 44/200/44 97/199/97
f 98/201/98 97/199/97 44/200/44
f 44/200/44 46/202/46 98/201/98
f 99/203/99 98/201/98 46/202/46
f 46/202/46 48/204/48 99/203/99
f 100/205/100 99/203/99 48/204/48
f 48/204/48 50/206/50 100/205/100
f 76/156/76 100/205/100 50/206/50
f 50/206/50 3/157/3 76/156/76
